<svg width="16" height="17" viewBox="0 0 16 17" fill="none" xmlns="http://www.w3.org/2000/svg">
<path d="M10.5 1.31592C12.9688 1.31592 15 3.34717 15 5.81592C15 8.31592 12.9688 10.3159 10.5 10.3159C9.90625 10.3159 9.3125 10.2222 8.8125 10.0034L7.5 11.3159H6V13.3159H4V15.3159H1V12.8159L6.3125 7.50342C6.09375 7.00342 6 6.40967 6 5.81592C6 3.34717 8 1.31592 10.5 1.31592ZM10.5 0.315918C7.4375 0.315918 5 2.78467 5 5.81592C5 6.31592 5.03125 6.78467 5.15625 7.22217L0.21875 12.1909C0.0625 12.3472 0 12.5347 0 12.7222V15.5659C0 16.0034 0.3125 16.3159 0.75 16.3159H4.25C4.65625 16.3159 5 16.0034 5 15.5659V14.3159H6.25C6.65625 14.3159 7 14.0034 7 13.5659V12.3159H7.59375C7.78125 12.3159 7.96875 12.2534 8.125 12.0972L9.09375 11.1597C9.53125 11.2847 10 11.3159 10.5 11.3159C13.5312 11.3159 16 8.87842 16 5.81592C16 2.78467 13.5312 0.315918 10.5 0.315918ZM12 3.69092C12.3438 3.69092 12.625 3.97217 12.625 4.31592C12.625 4.69092 12.3438 4.94092 12 4.94092C11.625 4.94092 11.375 4.69092 11.375 4.31592C11.375 3.97217 11.625 3.69092 12 3.69092ZM12 2.81592C11.1562 2.81592 10.5 3.50342 10.5 4.31592C10.5 5.15967 11.1562 5.81592 12 5.81592C12.8125 5.81592 13.5 5.15967 13.5 4.31592C13.5 3.50342 12.8125 2.81592 12 2.81592Z" fill="#4CA6FE"/>
</svg>
