<svg width="16" height="17" viewBox="0 0 16 17" fill="none" xmlns="http://www.w3.org/2000/svg">
<path d="M8 0.5C5.87827 0.5 3.84344 1.34285 2.34315 2.84315C0.842855 4.34344 0 6.37827 0 8.5C0 10.6217 0.842855 12.6566 2.34315 14.1569C3.84344 15.6571 5.87827 16.5 8 16.5C10.1217 16.5 12.1566 15.6571 13.6569 14.1569C15.1571 12.6566 16 10.6217 16 8.5C16 6.37827 15.1571 4.34344 13.6569 2.84315C12.1566 1.34285 10.1217 0.5 8 0.5ZM8 15.468C7.08491 15.4681 6.17876 15.288 5.33331 14.9379C4.48785 14.5877 3.71965 14.0745 3.07259 13.4274C2.42552 12.7803 1.91227 12.0121 1.56214 11.1667C1.21201 10.3212 1.03187 9.41509 1.032 8.5C1.03187 7.58491 1.21201 6.67876 1.56214 5.83331C1.91227 4.98785 2.42552 4.21965 3.07259 3.57259C3.71965 2.92552 4.48785 2.41227 5.33331 2.06214C6.17876 1.71201 7.08491 1.53187 8 1.532C8.91509 1.53187 9.82124 1.71201 10.6667 2.06214C11.5121 2.41227 12.2803 2.92552 12.9274 3.57259C13.5745 4.21965 14.0877 4.98785 14.4379 5.83331C14.788 6.67876 14.9681 7.58491 14.968 8.5C14.968 9.415 14.7878 10.321 14.4376 11.1664C14.0874 12.0117 13.5741 12.7798 12.9271 13.4268C12.28 14.0737 11.5119 14.5869 10.6665 14.937C9.82107 15.287 8.915 15.4671 8 15.467V15.468ZM12.569 6.598C12.6415 6.52544 12.6822 6.42706 12.6822 6.3245C12.6822 6.22193 12.6415 6.12356 12.569 6.051L12.296 5.776C12.2234 5.70351 12.1251 5.6628 12.0225 5.6628C11.9199 5.6628 11.8216 5.70351 11.749 5.776L6.477 11.006L4.253 8.76C4.18044 8.68751 4.08207 8.6468 3.9795 8.6468C3.87694 8.6468 3.77856 8.68751 3.706 8.76L3.431 9.033C3.35852 9.10556 3.3178 9.20393 3.3178 9.3065C3.3178 9.40906 3.35852 9.50743 3.431 9.58L6.199 12.371C6.27156 12.4435 6.36994 12.4842 6.4725 12.4842C6.57507 12.4842 6.67344 12.4435 6.746 12.371L12.569 6.598Z" fill="#F15B3E"/>
</svg>
