<svg width="74" height="57" viewBox="0 0 74 57" fill="none" xmlns="http://www.w3.org/2000/svg">
<path d="M8.91289 21.7867C9.93108 21.7867 10.5656 21.1403 10.5656 20.0825V3.20263H15.7746C16.6895 3.20263 17.3093 2.64437 17.3093 1.77761C17.3093 0.910839 16.6895 0.352583 15.7746 0.352583H2.03639C1.12149 0.352583 0.501719 0.910839 0.501719 1.77761C0.501719 2.64437 1.12149 3.20263 2.03639 3.20263H7.26017V20.0825C7.26017 21.1403 7.87994 21.7867 8.91289 21.7867Z" fill="#454545"/>
<path d="M22.6352 21.5516H33.2008C34.1157 21.5516 34.7355 20.9934 34.7355 20.1266C34.7355 19.2598 34.1157 18.7016 33.2008 18.7016H24.2879V12.12H32.7138C33.5992 12.12 34.1895 11.5765 34.1895 10.7538C34.1895 9.9164 33.5845 9.38752 32.7138 9.38752H24.2879V3.20263H33.2008C34.1157 3.20263 34.7355 2.64437 34.7355 1.77761C34.7355 0.910839 34.1157 0.352583 33.2008 0.352583H22.6352C21.6022 0.352583 20.9825 0.998985 20.9825 2.05673V19.8475C20.9825 20.9052 21.6022 21.5516 22.6352 21.5516Z" fill="#454545"/>
<path d="M46.3624 21.9042C51.3353 21.9042 54.4932 19.3921 54.4932 15.3961C54.4932 12.311 52.6634 10.5334 48.1922 9.59319L45.8754 9.10839C43.116 8.52075 42.0092 7.49239 42.0092 5.94984C42.0092 4.01063 43.8538 2.80597 46.3476 2.80597C48.4725 2.80597 50.0957 3.64336 50.8188 5.59725C51.1582 6.36118 51.6452 6.72846 52.442 6.72846C53.2979 6.72846 53.9029 6.1702 53.9029 5.31813C53.9029 5.00962 53.8586 4.75987 53.7849 4.5542C52.9585 1.71884 50.0662 0 46.3919 0C41.8617 0 38.6595 2.49746 38.6595 6.12613C38.6595 9.18185 40.5926 11.1504 44.8425 12.0466L47.174 12.5314C50.022 13.1484 51.1435 14.1768 51.1435 15.8222C51.1435 17.7173 49.2104 19.0982 46.5099 19.0982C44.0456 19.0982 42.1125 18.1727 41.4485 16.1894C41.1238 15.3961 40.6369 15.0582 39.8843 15.0582C38.9841 15.0582 38.3939 15.6753 38.3939 16.6302C38.3939 16.9827 38.4677 17.3353 38.571 17.6585C39.3973 20.1266 42.2306 21.9042 46.3624 21.9042Z" fill="#454545"/>
<path d="M65.6036 21.7867C66.6218 21.7867 67.2563 21.1403 67.2563 20.0825V3.20263H72.4653C73.3802 3.20263 74 2.64437 74 1.77761C74 0.910839 73.3802 0.352583 72.4653 0.352583H58.7271C57.8122 0.352583 57.1924 0.910839 57.1924 1.77761C57.1924 2.64437 57.8122 3.20263 58.7271 3.20263H63.9509V20.0825C63.9509 21.1403 64.5706 21.7867 65.6036 21.7867Z" fill="#454545"/>
<path d="M8.41117 56.8825C9.42936 56.8825 10.0639 56.2361 10.0639 55.1783V38.2984H15.2729C16.1878 38.2984 16.8076 37.7402 16.8076 36.8734C16.8076 36.0066 16.1878 35.4484 15.2729 35.4484H1.53467C0.61977 35.4484 0 36.0066 0 36.8734C0 37.7402 0.61977 38.2984 1.53467 38.2984H6.75845V55.1783C6.75845 56.2361 7.37822 56.8825 8.41117 56.8825Z" fill="#454545"/>
<path d="M18.105 56.8825C18.9608 56.8825 19.4478 56.4711 19.7577 55.5162L21.3661 50.962H29.5117L31.1349 55.5309C31.43 56.4711 31.917 56.8825 32.8024 56.8825C33.7616 56.8825 34.4551 56.2508 34.4551 55.384C34.4551 55.1049 34.3961 54.8257 34.2485 54.4144L27.7557 36.9175C27.313 35.7422 26.6047 35.2133 25.4537 35.2133C24.2879 35.2133 23.5649 35.7569 23.1369 36.9322L16.6588 54.4144C16.5113 54.8111 16.4522 55.1343 16.4522 55.384C16.4522 56.2801 17.1163 56.8825 18.105 56.8825ZM22.2073 48.2736L25.3799 38.9742H25.4684L28.6706 48.2736H22.2073Z" fill="#454545"/>
<path d="M45.5655 57C50.5384 57 53.6963 54.4878 53.6963 50.4919C53.6963 47.4068 51.8665 45.6292 47.3953 44.689L45.0786 44.2042C42.3191 43.6165 41.2124 42.5882 41.2124 41.0456C41.2124 39.1064 43.0569 37.9018 45.5508 37.9018C47.6757 37.9018 49.2989 38.7391 50.022 40.693C50.3614 41.457 50.8483 41.8242 51.6452 41.8242C52.501 41.8242 53.1061 41.266 53.1061 40.4139C53.1061 40.1054 53.0618 39.8557 52.988 39.65C52.1616 36.8146 49.2694 35.0958 45.595 35.0958C41.0648 35.0958 37.8627 37.5933 37.8627 41.2219C37.8627 44.2776 39.7958 46.2462 44.0456 47.1424L46.3771 47.6272C49.2251 48.2442 50.3466 49.2726 50.3466 50.9179C50.3466 52.8131 48.4135 54.194 45.7131 54.194C43.2488 54.194 41.3157 53.2685 40.6516 51.2852C40.327 50.4919 39.84 50.154 39.0874 50.154C38.1873 50.154 37.597 50.771 37.597 51.7259C37.597 52.0785 37.6708 52.4311 37.7741 52.7543C38.6005 55.2224 41.4337 57 45.5655 57Z" fill="#454545"/>
<path d="M59.5239 56.8825C60.5421 56.8825 61.1767 56.2361 61.1767 55.1783V49.5811L63.4491 47.1571L70.7979 56.0451C71.2996 56.6621 71.7275 56.8972 72.3768 56.8972C73.2769 56.8972 73.9705 56.2067 73.9705 55.3105C73.9705 54.8992 73.7934 54.4438 73.3802 53.9443L65.8544 44.8947L72.6572 37.8577C73.0113 37.4757 73.1736 37.1231 73.1736 36.7118C73.1736 35.8597 72.5244 35.1986 71.6242 35.1986C71.1077 35.1986 70.7093 35.3896 70.2666 35.8744L61.3095 45.4382H61.1767V36.9175C61.1767 35.8597 60.5421 35.2133 59.5239 35.2133C58.491 35.2133 57.8712 35.8597 57.8712 36.9175V55.1783C57.8712 56.2361 58.491 56.8825 59.5239 56.8825Z" fill="#454545"/>
</svg>
