<svg width="26" height="26" viewBox="0 0 26 26" fill="none" xmlns="http://www.w3.org/2000/svg">
<path d="M22.375 0.125H3.625C1.86719 0.125 0.5 1.54102 0.5 3.25V17.3125C0.5 19.0703 1.86719 20.4375 3.625 20.4375H8.3125V24.5391C8.3125 24.9297 8.55664 25.125 8.89844 25.125C8.99609 25.125 9.09375 25.125 9.24023 25.0273L15.3438 20.4375H22.375C24.084 20.4375 25.5 19.0703 25.5 17.3125V3.25C25.5 1.54102 24.084 0.125 22.375 0.125ZM23.9375 17.3125C23.9375 18.1914 23.2051 18.875 22.375 18.875H14.8066L14.3672 19.2168L9.875 22.5859V18.875H3.625C2.74609 18.875 2.0625 18.1914 2.0625 17.3125V3.25C2.0625 2.41992 2.74609 1.6875 3.625 1.6875H22.375C23.2051 1.6875 23.9375 2.41992 23.9375 3.25V17.3125ZM16.6621 11.7461C15.7832 12.8203 14.416 13.4062 13 13.4062C11.5352 13.4062 10.2168 12.8203 9.28906 11.7461C8.99609 11.4043 8.50781 11.3555 8.16602 11.6484C7.82422 11.9414 7.82422 12.4297 8.06836 12.7715C9.28906 14.1875 11.0957 14.9688 13 14.9688C14.8555 14.9688 16.6621 14.1875 17.8828 12.7715C18.1758 12.4297 18.127 11.9414 17.7852 11.6484C17.4434 11.3555 16.9551 11.4043 16.6621 11.7461ZM9.875 9.10938C10.5098 9.10938 11.0469 8.62109 11.0469 7.9375C11.0469 7.30273 10.5098 6.76562 9.875 6.76562C9.19141 6.76562 8.70312 7.30273 8.70312 7.9375C8.70312 8.62109 9.19141 9.10938 9.875 9.10938ZM16.125 9.10938C16.7598 9.10938 17.2969 8.62109 17.2969 7.9375C17.2969 7.30273 16.7598 6.76562 16.125 6.76562C15.4414 6.76562 14.9531 7.30273 14.9531 7.9375C14.9531 8.62109 15.4414 9.10938 16.125 9.10938Z" fill="#AAAAAA"/>
</svg>
